<svg xmlns="http://www.w3.org/2000/svg" version="1.1" width="522" height="222">
<path d="M 437,187 436,188 436,199 438,199 438,191 440,189 442,189 444,191 444,199 445,199 446,198 445,197 445,188 444,188 443,187 440,187 439,188 438,188" fill="black" />
<path d="M 426,187 423,190 423,196 424,197 424,198 425,199 433,199 433,196 432,197 431,197 430,198 428,198 425,195 425,194 426,193 433,193 433,190 432,189 432,188 431,188 430,187" fill="black" />
<path d="M 404,187 403,188 403,199 405,199 405,191 407,189 409,189 411,191 411,199 412,199 413,198 413,191 415,189 417,189 418,190 418,199 420,199 420,189 418,187 415,187 414,188 411,188 410,187 407,187 406,188 405,188" fill="black" />
<path d="M 391,187 390,188 390,199 392,199 392,191 394,189 396,189 398,191 398,199 399,199 400,198 400,191 399,190 399,188 398,188 397,187 394,187 393,188 392,188" fill="black" />
<path d="M 373,187 372,188 372,189 377,189 379,191 378,192 373,192 371,194 371,197 372,198 372,199 381,199 381,190 380,189 380,188 379,188 378,187" fill="black" />
<path d="M 345,187 344,188 343,188 343,189 342,190 342,191 341,192 341,195 342,196 342,197 344,199 351,199 351,196 350,197 349,197 348,198 347,198 346,197 345,197 344,196 344,195 343,194 344,193 352,193 352,191 351,190 351,189 349,187" fill="black" />
<path d="M 321,187 321,199 322,199 322,191 323,190 324,190 325,189 327,189 328,190 328,199 330,199 330,189 328,187 325,187 324,188 323,188 322,187" fill="black" />
<path d="M 154,187 153,188 152,188 152,189 151,190 151,191 152,192 152,193 153,193 154,194 156,194 158,196 158,197 157,198 155,198 154,197 153,197 152,196 151,197 151,198 152,199 158,199 160,197 160,194 159,193 158,193 157,192 154,192 153,191 153,190 154,189 158,189 159,190 160,190 160,188 159,188 158,187" fill="black" />
<path d="M 143,187 142,188 141,188 141,190 140,191 141,192 141,193 142,193 143,194 145,194 147,196 147,197 146,198 144,198 143,197 142,197 141,196 140,197 140,198 141,199 148,199 148,198 149,197 149,194 148,193 147,193 146,192 144,192 143,191 143,190 144,189 147,189 148,190 149,190 149,188 148,188 147,187" fill="black" />
<path d="M 132,187 131,188 130,188 128,190 128,196 131,199 138,199 138,196 137,197 136,197 135,198 133,198 130,195 130,194 131,193 138,193 138,190 137,189 137,188 136,188 135,187" fill="black" />
<path d="M 116,187 116,199 117,199 117,191 118,190 119,190 120,189 122,189 123,190 123,199 125,199 125,189 123,187 120,187 119,188 118,188 117,187" fill="black" />
<path d="M 101,187 100,188 99,188 99,190 98,191 99,192 99,193 100,193 101,194 103,194 105,196 103,198 101,198 100,197 98,197 98,198 99,199 105,199 107,197 107,194 106,193 105,193 104,192 101,192 100,191 100,190 101,189 105,189 106,190 106,188 105,187" fill="black" />
<path d="M 86,187 86,193 85,194 86,195 86,198 87,199 95,199 95,188 94,187 93,188 93,196 92,197 91,197 90,198 88,196 88,195 87,194 87,187" fill="black" />
<path d="M 274,185 271,188 271,190 270,191 270,192 271,193 271,195 273,197 277,197 278,196 279,197 279,198 278,199 277,199 276,200 274,200 273,199 272,199 272,201 279,201 280,200 280,185 279,186 278,186 277,185" fill="black" />
<path d="M 259,185 258,186 258,197 260,197 260,189 262,187 264,187 266,189 266,197 268,197 268,189 267,188 267,186 266,186 265,185 262,185 261,186 260,186" fill="black" />
<path d="M 240,185 239,186 239,201 241,201 241,198 242,197 247,197 249,195 249,187 248,186 247,186 246,185 244,185 243,186 241,186" fill="black" />
<path d="M 227,185 226,186 226,201 228,201 228,198 229,197 234,197 235,196 235,195 236,194 236,188 235,187 235,186 234,186 233,185 231,185 230,186 228,186" fill="black" />
<path d="M 217,185 216,186 215,186 213,188 213,195 215,197 221,197 223,195 223,188 220,185" fill="black" />
<path d="M 449,184 449,187 448,188 448,189 449,190 449,196 450,197 450,198 451,199 455,199 455,197 454,198 453,198 451,196 451,190 452,189 455,189 455,187 452,187 451,186 451,184" fill="black" />
<path d="M 364,184 363,185 363,187 362,188 361,187 360,187 359,188 357,188 356,187 355,187 354,188 354,198 355,199 356,199 357,198 357,191 358,190 359,190 360,189 362,189 363,190 363,195 364,196 364,198 365,199 369,199 369,197 368,198 367,198 366,197 366,190 367,189 369,189 369,187 367,187 366,186 366,185 365,184" fill="black" />
<path d="M 334,184 334,186 333,187 333,189 334,190 334,198 335,199 339,199 340,198 339,197 338,198 336,196 336,190 337,189 339,189 340,188 339,187 337,187 336,186 336,184" fill="black" />
<path d="M 385,183 384,184 384,185 385,186 385,199 386,199 386,187 385,186 386,185 386,183" fill="black" />
<path d="M 308,183 308,199 317,199 317,197 311,197 310,196 310,192 311,191 317,191 317,190 311,190 310,189 310,186 311,185 317,185 317,183" fill="black" />
<path d="M 110,183 110,185 111,186 111,187 110,188 110,199 112,199 112,188 111,187 111,186 112,185 112,183" fill="black" />
<path d="M 72,183 72,199 80,199 83,196 83,193 82,192 82,191 81,191 80,190 82,188 82,186 80,184 79,184 78,183" fill="black" />
<path d="M 253,182 253,197 254,197 254,186 253,185 254,184 254,182" fill="black" />
<path d="M 200,181 200,197 202,197 202,189 203,188 204,188 205,187 206,187 208,189 208,197 210,197 210,188 209,187 209,186 208,186 207,185 205,185 204,186 203,186 202,185 202,181" fill="black" />
<path d="M 190,181 189,182 188,182 186,184 186,188 188,190 192,190 193,191 194,191 195,192 195,194 193,196 190,196 189,195 188,195 187,194 186,194 186,197 195,197 196,196 196,195 197,194 197,191 195,189 193,189 192,188 189,188 188,187 188,185 190,183 193,183 194,184 195,184 196,185 196,182 194,182 193,181" fill="black" />
<path d="M 335,146 335,147 336,148 335,149 335,150 336,150 337,149 337,146" fill="black" />
<path d="M 402,140 402,147 404,147 404,140" fill="black" />
<path d="M 409,139 408,140 406,140 406,147 408,147 408,142 409,141 410,141 411,142 411,145 412,146 412,147 413,147 414,148 416,148 417,147 418,147 418,146 417,145 418,144 418,141 417,140 416,140 415,139 414,139 412,141 410,139" fill="black" />
<path d="M 387,139 385,141 385,146 387,148 389,148 390,147 391,147 392,146 393,146 394,147 395,147 396,148 397,148 398,147 399,147 400,146 400,144 399,143 399,142 400,141 399,140 398,140 397,139 395,139 392,142 389,139" fill="black" />
<path d="M 368,139 367,140 364,140 364,147 366,147 366,143 368,141 369,141 369,140" fill="black" />
<path d="M 326,139 325,140 322,140 322,147 324,147 324,142 325,141 326,142 326,147 328,147 328,143 330,141 331,142 331,147 333,147 333,140 332,140 331,139 330,139 329,140 327,140" fill="black" />
<path d="M 282,139 281,140 279,140 279,147 280,147 280,143 282,141 283,141 283,139" fill="black" />
<path d="M 263,139 262,140 261,140 261,141 260,142 260,146 261,147 262,147 263,148 264,148 265,147 266,147 268,145 269,145 270,146 270,147 271,148 272,148 273,147 276,147 276,140 275,140 275,144 273,146 272,146 271,145 271,140 269,140 269,141 268,142 266,140 265,140 264,139" fill="black" />
<path d="M 402,137 402,138 404,138 404,137" fill="black" />
<path d="M 374,137 374,147 381,147 383,145 383,139 381,137" fill="black" />
<path d="M 345,137 344,138 344,139 343,140 343,144 344,145 344,146 345,147 346,147 347,148 349,148 350,147 352,147 352,146 353,145 353,144 354,143 355,144 355,146 357,148 358,148 359,147 362,147 362,140 361,139 360,140 360,145 359,146 358,146 357,145 357,140 355,140 355,141 354,142 353,141 353,139 352,138 352,137" fill="black" />
<path d="M 288,137 288,147 296,147 297,146 297,142 298,141 299,142 299,147 301,147 301,144 302,143 302,142 303,141 304,141 305,142 305,146 306,147 307,147 308,148 309,148 310,147 311,147 311,145 312,144 313,145 313,146 315,148 316,148 317,147 320,147 320,141 318,139 316,139 315,140 314,140 314,141 313,142 312,142 311,141 311,140 310,140 309,139 308,139 307,140 306,140 305,141 303,139 302,140 301,140 300,139 298,141 297,140 297,138 296,138 295,137" fill="black" />
<path d="M 250,137 252,139 252,140 253,141 253,142 254,143 254,147 256,147 256,143 258,141 258,140 260,138 260,137 257,137 257,139 256,140 255,140 254,139 254,138 253,137" fill="black" />
<path d="M 137,112 136,113 135,113 132,116 131,116 130,117 130,119 129,120 128,120 127,121 127,122 126,123 126,125 125,126 125,128 124,129 124,130 123,131 123,133 122,134 122,135 121,136 121,139 120,140 120,141 119,142 119,144 118,145 114,145 113,144 111,144 110,143 110,132 111,131 111,124 112,123 112,116 111,115 111,114 110,113 102,113 101,114 100,114 99,115 97,115 96,116 95,116 93,118 92,118 91,119 90,119 89,120 88,120 87,121 86,121 85,122 83,122 81,124 77,124 76,125 75,125 74,124 68,124 67,123 65,123 64,122 63,123 63,124 64,125 64,126 66,128 67,128 72,133 72,140 71,141 71,151 70,152 70,154 67,157 66,157 65,158 62,158 61,159 58,159 57,160 57,161 58,161 59,162 63,162 64,163 66,163 67,164 70,164 71,165 75,165 76,164 77,164 77,154 78,153 78,151 79,150 79,148 80,147 80,142 81,141 83,143 83,144 86,147 86,148 87,149 87,151 88,152 88,153 89,154 89,155 90,156 90,157 91,158 91,159 92,160 92,161 95,164 106,164 107,163 110,163 111,162 127,162 128,163 132,163 133,164 139,164 140,165 142,165 143,166 160,166 161,167 164,167 165,166 168,166 170,164 171,164 172,163 172,162 173,161 173,160 174,159 174,148 172,146 168,146 165,143 164,143 163,142 162,143 161,142 156,142 156,144 155,145 154,144 153,144 151,142 149,142 148,141 147,141 145,139 143,139 141,137 140,137 136,133 136,128 139,125 139,112" fill="black" />
<path d="M 287,86 286,87 284,87 279,92 279,94 278,95 278,102 279,103 279,105 284,110 286,110 287,111 294,111 295,110 297,110 302,105 302,103 303,102 303,94 302,93 302,92 297,87 295,87 294,86" fill="black" />
<path d="M 459,83 460,84 460,86 462,88 462,90 463,91 463,92 464,93 464,95 465,96 465,97 466,98 466,100 467,101 467,102 468,103 468,104 469,105 469,106 470,107 470,109 471,110 471,111 472,112 472,113 473,114 473,116 474,117 474,118 475,119 475,121 477,123 477,125 478,126 478,127 479,128 479,132 478,133 478,134 476,136 475,136 474,137 469,137 468,136 467,136 466,135 465,135 464,134 463,135 463,136 462,137 462,138 461,139 461,140 460,141 460,142 459,143 459,144 460,145 461,145 462,146 463,146 464,147 467,147 468,148 476,148 477,147 480,147 481,146 482,146 483,145 484,145 487,142 487,141 490,138 490,137 491,136 491,134 492,133 492,132 493,131 493,129 495,127 495,125 496,124 496,123 497,122 497,121 498,120 498,118 499,117 499,116 500,115 500,113 501,112 501,111 502,110 502,108 503,107 503,106 504,105 504,104 505,103 505,102 506,101 506,99 507,98 507,97 508,96 508,95 509,94 509,92 510,91 510,90 511,89 511,87 512,86 512,85 513,84 513,83 500,83 499,84 499,86 498,87 498,88 497,89 497,91 496,92 496,93 495,94 495,96 494,97 494,98 493,99 493,100 492,101 492,103 491,104 491,105 490,106 490,108 488,110 488,112 487,113 485,111 485,110 484,109 484,108 483,107 483,106 482,105 482,103 481,102 481,100 480,99 480,98 479,97 479,96 478,95 478,93 477,92 477,91 476,90 476,88 475,87 475,86 474,85 474,84 473,83" fill="black" />
<path d="M 415,83 415,93 437,93 438,94 435,97 435,98 431,102 431,103 424,110 424,111 420,115 420,116 415,121 415,130 457,130 457,120 433,120 432,119 433,118 434,118 434,117 438,113 438,112 443,107 443,106 444,105 445,105 445,104 449,100 449,99 454,94 454,93 455,92 456,92 456,83" fill="black" />
<path d="M 200,83 200,84 201,85 201,86 202,87 202,89 204,91 204,93 205,94 205,95 206,96 206,98 207,99 207,100 208,101 208,102 209,103 209,105 210,106 210,107 211,108 211,109 212,110 212,111 213,112 213,114 214,115 214,116 215,117 215,119 216,120 216,121 217,122 217,123 218,124 218,126 220,128 220,132 215,137 210,137 209,136 208,136 207,135 206,135 205,134 204,135 204,136 202,138 202,140 200,142 200,144 201,145 202,145 203,146 204,146 205,147 208,147 209,148 217,148 218,147 221,147 222,146 223,146 225,144 226,144 228,142 228,141 230,139 230,138 231,137 231,136 232,135 232,134 233,133 233,132 234,131 234,129 235,128 235,127 236,126 236,124 238,122 238,119 240,117 240,115 241,114 241,113 242,112 242,110 243,109 243,108 244,107 244,106 245,105 245,103 246,102 246,101 247,100 247,99 248,98 248,97 249,96 249,94 250,93 250,92 251,91 251,89 252,88 252,87 253,86 253,84 254,83 241,83 240,84 240,85 239,86 239,88 238,89 238,90 237,91 237,93 236,94 236,95 235,96 235,97 234,98 234,99 233,100 233,102 232,103 232,104 231,105 231,108 229,110 229,111 227,113 226,112 226,111 225,110 225,108 224,107 224,106 223,105 223,103 222,102 222,101 221,100 221,99 220,98 220,96 219,95 219,94 218,93 218,91 217,90 217,89 216,88 216,86 215,85 215,84 214,83" fill="black" />
<path d="M 156,83 156,93 178,93 179,94 176,97 176,98 169,105 169,106 165,110 165,111 158,118 158,119 156,121 156,130 198,130 198,120 174,120 173,119 179,113 179,112 183,108 183,107 190,100 190,99 194,95 194,94 197,91 197,83" fill="black" />
<path d="M 375,82 374,83 371,83 370,84 369,84 368,85 365,85 363,87 362,87 362,88 363,89 363,90 364,91 364,92 365,93 365,94 366,95 366,96 367,97 368,96 369,96 371,94 374,94 375,93 377,93 378,92 382,92 383,93 386,93 387,94 388,94 389,95 389,96 391,98 391,101 390,102 375,102 374,103 371,103 370,104 368,104 367,105 366,105 361,110 361,112 360,113 360,120 361,121 361,122 362,123 362,124 366,128 367,128 368,129 370,129 371,130 373,130 374,131 382,131 383,130 385,130 386,129 388,129 391,126 392,127 392,129 393,130 405,130 405,96 404,95 404,94 403,93 403,91 401,89 401,88 400,87 399,87 397,85 396,85 395,84 394,84 393,83 390,83 389,82" fill="black" />
<path d="M 349,82 348,83 345,83 343,85 342,85 340,87 339,87 338,86 338,83 325,83 325,130 339,130 339,102 341,100 341,99 344,96 345,96 346,95 347,95 348,94 355,94 355,82" fill="black" />
<path d="M 284,67 283,68 280,68 279,69 278,69 277,70 275,70 274,71 273,71 272,72 271,72 267,76 266,76 266,77 265,78 264,78 264,79 262,81 262,82 261,83 261,84 259,86 259,89 258,90 258,92 257,93 257,105 258,106 258,109 259,110 259,112 260,113 260,114 261,115 261,116 264,119 264,120 268,124 269,124 271,126 272,126 273,127 274,127 275,128 276,128 277,129 280,129 281,130 283,130 284,131 298,131 299,130 301,130 302,129 304,129 305,128 306,128 307,127 309,127 312,124 313,124 316,121 316,120 308,112 307,112 306,113 305,113 302,116 301,116 299,118 297,118 296,119 287,119 286,118 284,118 283,117 282,117 281,116 280,116 274,110 274,109 273,108 273,106 272,105 272,103 271,102 271,97 272,96 272,93 273,92 273,90 275,88 275,87 279,83 280,83 282,81 284,81 285,80 286,80 287,79 296,79 297,80 298,80 299,81 301,81 306,86 308,86 316,78 315,77 315,76 314,76 313,75 313,74 312,74 310,72 309,72 308,71 307,71 306,70 305,70 304,69 302,69 301,68 298,68 297,67" fill="black" />
<path d="M 70,12 69,13 67,13 65,15 63,15 59,19 59,20 57,22 57,25 56,26 56,29 55,30 55,31 53,33 51,33 50,32 48,32 47,33 43,33 42,34 40,34 39,35 34,35 33,36 33,38 31,40 29,40 28,41 27,41 26,42 25,42 24,43 21,43 20,44 18,44 17,45 16,45 15,46 15,67 14,68 14,69 13,70 13,72 12,73 12,74 11,75 11,77 10,78 10,80 11,81 11,82 12,82 13,83 13,84 14,84 16,82 17,83 18,83 19,82 19,80 20,79 20,71 21,70 21,67 22,66 22,60 23,59 23,53 24,52 26,52 27,51 30,51 31,52 30,53 30,58 29,59 29,63 28,64 28,79 27,80 27,81 26,82 26,86 25,87 25,100 26,101 26,106 27,107 27,110 28,111 28,113 29,114 29,115 30,116 30,131 29,132 29,133 28,134 28,136 27,137 27,139 26,140 26,143 25,144 25,146 24,147 24,151 22,153 22,155 20,157 20,159 19,160 19,162 21,164 22,164 24,166 25,166 26,167 27,167 28,168 29,168 30,169 31,169 33,171 35,171 36,172 37,172 38,171 38,168 37,167 37,166 36,165 36,164 35,164 34,163 34,162 31,159 31,152 32,151 32,150 33,149 33,147 34,146 34,145 35,144 35,143 36,142 36,138 37,137 37,136 38,135 38,132 39,131 39,129 40,128 40,125 41,124 41,122 42,121 42,115 43,114 44,115 44,117 46,119 46,128 45,129 45,130 44,131 44,135 43,136 43,146 42,147 42,151 41,152 41,157 40,158 40,159 39,160 39,162 41,164 43,164 45,166 46,166 48,168 49,168 50,169 51,169 52,170 58,170 59,169 59,166 52,159 52,158 51,157 51,145 52,144 52,142 53,141 53,138 54,137 54,134 55,133 55,129 56,128 56,126 57,125 57,123 58,122 58,109 57,108 57,105 56,104 56,101 55,100 55,94 54,93 54,89 53,88 53,82 55,80 55,79 56,78 56,77 57,76 57,75 58,74 58,72 59,71 59,70 60,69 61,70 61,71 62,72 62,73 63,74 63,75 66,78 67,78 69,80 70,80 71,81 72,81 73,82 74,82 75,83 76,83 78,85 79,85 82,88 83,88 89,94 90,94 91,93 94,96 96,96 97,95 99,95 98,94 99,93 99,92 98,91 98,90 93,85 92,85 91,84 90,84 89,83 88,83 87,82 85,82 81,78 80,78 76,74 75,74 73,72 72,72 70,70 70,69 69,68 69,65 68,64 68,62 67,61 67,59 66,58 66,52 65,51 65,50 64,49 64,46 63,45 63,44 62,43 62,41 63,40 68,40 69,39 71,39 72,38 73,38 74,37 75,37 75,36 76,35 77,35 80,32 81,32 82,31 83,31 83,30 84,29 84,28 85,27 84,26 86,24 86,19 84,17 83,17 81,15 80,15 79,14 78,14 77,13 75,13 74,12" fill="black" />
</svg>